<?xml version="1.0" encoding="UTF-8"?><svg xmlns="http://www.w3.org/2000/svg" xmlns:xlink="http://www.w3.org/1999/xlink" height="201.3" preserveAspectRatio="xMidYMid meet" version="1.0" viewBox="-1.1 -1.5 184.4 201.3" width="184.4" zoomAndPan="magnify"><g id="change1_1"><path d="M135.3,75.2c-0.1,0.6,0.3,0.6,0.6,0.8c8.3,4.8,15.4,11.1,21.2,18.7c5,6.4,10.7,12.1,15.7,18.5 c0.2,0.2,0.4,0.5,0.6,0.7c3.1,3.3,3.6,6.7,2.2,11.1c-2.8,9.1-7.1,17.3-11.6,25.5c-2,3.5-4.8,6.4-8.2,8.7 c-6.5,4.2-11.2,3.3-15.4-2.5c-5.4-7.4-11.9-13.8-17.8-20.7c-8.9-10.6-15.8-22.2-20.2-35.4c-1.7-5.1-3.1-10.2-5.8-14.9 c-0.3-0.5-0.7-1-1-1.5c-1-0.2-1.6-1-2.1-1.8c-0.2-0.3-0.4-0.8-0.2-1.2c0.3-0.5,0.6-0.2,1.1-0.1c1,0.3,0.5-1.3,1.5-1.1 c0,0.3,0.1,0.7,0.1,1.1c0.1,0,0.3,0,0.3,0c1.3-4.5,5.1-6.4,8.6-8.7c0.4-0.3,1-0.5,1-1.4c-5.1-0.3-10.2-0.8-15.3-0.7 c-2.5,0-4.6,1-6.9,1.8c4,4.2,4.7,7.1,2.1,12.2c-7.5,14.9-13.7,30.4-22.6,44.6c-4.4,7-8.9,14-14,20.5c-3.6,4.5-8.1,7.9-13.2,10.6 c-4.9,2.6-12.2,1.2-15.2-5.2c-2.2-4.7-3.5-9.7-4.6-14.7c-1.9-8.9-5.1-17.2-10.1-24.9c-1.8-2.7-3.2-5.7-4.4-8.7 c-1-2.4-0.8-4.8,0.3-7.1C3.6,96.4,6,93.9,8.9,92c6.2-4,13.1-6.1,19.9-8.6c4.6-1.6,9.2-3.1,14.2-4c-1.4-1-2.8-0.7-4.1-0.9 c-7.8-1.1-15.5-2.6-22.7-5.8c-10-4.5-12.6-11.5-7.3-21.2c4.3-7.9,8.8-15.7,12-24.1c2-5.1,3.7-10.4,5.6-15.6 c0.9-2.3,1.9-4.6,3.2-6.6c2.2-3.3,4.1-3.9,7.8-2.4c2.8,1.1,5.3,2.7,7.8,4.5c16.4,12,29.9,26.7,40.8,43.9c0.5,0.9,1,1.8,1.4,2.7 c1.3,3.3,7,4.3,9.2,1.3c4.8-6.3,9.8-12.6,14.1-19.4C118.1,24.2,127.2,14,137.5,5c1.7-1.5,3.6-2.8,5.7-3.7 c6.5-2.8,12.4-0.6,15.4,5.8c1.5,3.2,2.3,6.7,3.1,10.1c2.3,9.8,6.4,18.6,13.4,25.9c1.7,1.8,3.2,3.9,4.5,6.1 c3.7,6.6,2.2,13.2-3.8,17.6c-2.4,1.7-5.1,2.7-7.8,3.7C157.5,74.3,146.6,76.3,135.3,75.2z" fill="#CA2727"/></g><g id="change2_1"><path d="M182.6,57.1c-0.7-3.3-1.9-6.3-3.9-9c-3.1-4.2-6.5-8.2-8.6-13.2c-2.5-6.1-5.4-12-6.4-18.6 c-0.3-1.7-0.7-3.4-1.2-5.1c-2.8-8.5-9.6-11.9-18-8.9c-4.4,1.6-8.2,4.1-11.7,7.2c-7.5,6.6-13.5,14.4-19,22.7 c-4.9,7.3-9.5,14.8-15,21.8c-0.7,0.9-1.4,1.2-2.6,1.2c-2-0.1-4.1-0.3-6.1,0.2c-1.3,0.3-1.9-0.2-2.5-1.3c-2.4-4.7-4.9-9.2-8.3-13.2 c-9-10.5-18.9-20.1-28.7-29.8c-3-3-6.5-5.4-10.5-7.2c-5-2.2-10.3,0.4-12.6,4.3c-0.9,1.5-1.6,3.1-2.3,4.7c-0.9,2.4-1.9,4.8-2.5,7.3 C19.9,31.1,15.6,41.1,9,50.2c-1.8,2.6-3.1,5.4-3.5,8.6c-0.7,5.9,0.9,12.7,8.2,15.3c3.4,1.2,6.7,2.5,10.2,3.5 c4.9,1.5,9.8,2.5,15,2.8c-0.1,0.3-0.2,0.4-0.3,0.4c-0.4,0.2-0.9,0.3-1.4,0.4c-7.7,2.3-15.3,4.9-22.5,8.5c-4,2-8,4-11,7.3 c-3.1,3.4-4.8,7.2-3.1,11.8c0.8,2.2,2,4.1,3.2,6c5.4,9.1,10.4,18.4,12.2,29.1c0.8,4.9,2.2,9.7,4.5,14.2c2.6,5,8.9,7.3,14,5.3 c2.3-0.9,4.4-2.1,6.4-3.7c3.5-2.9,7.2-5.8,10.4-9.5c0,0.6,0,0.8,0,1c-1.9,12-2,24-1.7,36.1c0.1,3.5,0.4,6.9,0.6,10.4 c0.1,1.1,0.5,2.1,1.8,2.1c1.3,0,1.6-1,1.7-2.1c0-0.1,0-0.2,0-0.4c1-7.5,4.6-13.8,8.7-19.9c0.6-0.9,1.2-0.8,1.8,0.1 c1.1,1.7,2.2,3.3,3.3,4.9c2.8,4.5,5.9,8.9,9.1,13.2c0.7,0.9,1.5,1.6,2.8,1.2c1.2-0.4,1.3-1.5,1.2-2.6c-0.3-10.5-0.3-21-0.8-31.5 c-0.9-17.5,0.8-34.7,3.9-51.9c1.5-8,4-15.7,5.7-23.6c0.3-1.6,1-2,2.5-1.9c1,0,1.3,0.5,1.7,1.3c2.6,5.6,3.6,11.7,5.2,17.6 c5.8,21.2,9,42.7,8.8,64.7c-0.1,8.1-1.5,16.1-0.7,24.2c0.1,0.8,0,1.6,1,1.9c0.9,0.3,1.5-0.1,2.1-0.7c4.4-5.3,8.1-10.9,9.6-17.7 c0.1-0.5,0.3-0.9,0.4-1.4c1.8,5.5,4.9,10.4,6.8,15.8c0.3,0.9,0.8,1.7,1.9,1.6c1-0.1,1.3-1,1.4-1.9c0-0.1,0-0.2,0-0.4 c1.9-12.4,2-24.8,0.1-37.3c-0.3-1.8-0.9-3.5-0.6-5.4c3.2,2.7,5.8,5.9,8.7,9c2,2.1,4.1,4.1,6.4,5.7c2.6,1.8,5.4,2.2,8.2,1.1 c4.6-1.7,8.7-4.3,11.5-8.5c3.3-4.9,6.1-10,8.2-15.6c1.7-4.5,3.7-8.8,4.7-13.6c0.7-3.5,0.1-6.5-2.2-9.2c-3.6-4.5-7.2-9-10.9-13.4 c-6.9-8.2-13.8-16.5-22.3-23.1c-0.1-0.1-0.1-0.3-0.2-0.4c0.1-0.1,0.2-0.2,0.3-0.2c8.3-1.1,16.1-4.2,24.1-6.6 c5.4-1.7,10.6-3.9,14.3-8.5C182.3,62.3,183.2,60,182.6,57.1z M76.3,79c-5.7,2.4-10.5,6.2-15.3,10c-0.4,0.3-0.8,0.7-1.2,1.1 c0.1,0.1,0.2,0.3,0.2,0.4c5.3-3.2,10.6-6.5,16.4-8.6c0.1,0.1,0.2,0.2,0.3,0.4c-4.2,3.9-8.4,7.8-12.6,11.8c3.3-1.1,5.7-3.8,8.9-5.1 c-1.6,2.4-3.3,4.7-4.9,7.1c-5.3,8-9.5,16.7-14.1,25.1c-2.3,4.3-4.6,8.5-7.4,12.6c-3.3,4.9-7.1,9.2-12.1,12.4 c-3.4,2.2-6.9,3.1-10.7,1.4c-3.6-1.5-6.1-4-6.5-8.1c-0.7-6.9-3.7-12.8-7-18.7c-1.9-3.5-4.1-6.8-6-10.2c-2.6-4.6-2-8.1,1.7-11.9 c3.5-3.6,7.8-5.7,12.2-7.8c9.7-4.5,19.8-8.1,30.3-9.9c5.2-0.9,10.5-1.1,15.7-1.6c3-0.3,6-0.6,8.8-1.5c1-0.3,2-0.2,3-0.1 c0.4,0,0.9,0,1,0.5C77.4,78.8,76.7,78.8,76.3,79z M82.4,57.6c-0.5,0.2-0.8,0.1-1.2-0.2c-7.8-6.5-17.4-9.3-26.8-12.3 c-3.2-1-6.5-1.9-10.4-2c11.9,3.3,22.5,8.1,32.2,14.8c0.9,0.6,1.8,1.2,2.6,1.9c0.8,0.6,0.5,1.4,0.1,2.1c-0.4,0.7-0.8,0.2-1.2,0 c-7.9-4.2-16.6-5.7-25.4-7c-2.9-0.4-5.8-0.7-8.8-1c-1.4-0.1-2.8-0.3-4.3,0.4c12.8,1.8,25.2,4.9,36.6,10.8c1.5,0.8,2,1.5,1.6,3.2 c-0.5,1.7-0.6,3.5-0.7,5.3c-0.1,1-0.4,1.2-1.3,1c-1.6-0.4-3.2-0.6-4.7-1.2c-8.4-3.2-17.2-3.5-26.1-3.3c-5.7,0.2-11.4,0.3-17-1.2 c-1.6-0.5-3.2-1.1-4.6-1.9c-4.3-2.5-5.5-4.9-4.5-9.8c1-5.1,2.6-10,4.4-14.8c3.7-10,6.9-20.2,11.1-30c0.6-1.5,1.5-2.1,3-2.3 c2.4-0.3,4.6,0.2,6.8,1.2c2.2,1,4.1,2.5,5.9,4.1c8.1,7.4,16,15,23.9,22.7c3.3,3.2,6.3,6.8,8.5,10.9c1.4,2.5,3.4,4.5,5.3,6.9 C85.6,56.5,84,57,82.4,57.6z M158.1,99.4c2.9,3.2,5.9,6.3,8.8,9.5c2.7,3.1,4.6,6.7,6.4,10.4c0.5,1.1,0.5,2.4,0.2,3.5 c-1.7,5.1-3.2,10.2-5.5,15c-2.1,4.4-5.4,7.9-9.4,10.4c-4.7,3-9.6,2.6-14.3-0.3c-3-1.8-5.1-4.5-7.1-7.3c-3.9-5.7-7-11.9-10-18.1 c-3.4-7.1-6.7-14.2-10-21.3c-2.4-5.1-5-10.1-8.9-14.3c-0.2-0.3-0.3-0.6-0.7-1.3c4.9,1.7,9.2,3.8,13.8,5.6 c-4.4-2.9-8.6-6.1-13.2-8.9c4.8,0.6,9.5,1.8,14.1,3.1c-3.4-2.4-7.2-4-11.6-5.5c4.9-1.3,9.3-1.1,13.7-0.7c4.3,0.4,8.5,1.2,12.9,0.9 c1.5-0.1,2.3,1.1,3.3,2C146.8,87.5,152.5,93.4,158.1,99.4z M167.5,58.2C156.6,72.5,142,76.5,125,73.8c-4.4-0.7-8.7-2.1-13.1-3.1 c-0.8-0.2-1.1-0.6-1-1.4c0.1-1.1,0.2-2.3,0-3.4c-0.5-2.2,0.7-2.8,2.5-3.4c10-3.3,20.1-5.3,30.6-6.2c0.9-0.1,1.9-0.2,3.1-0.3 c-0.7-0.5-1.3-0.5-1.8-0.5c-9.6,0.1-19.2,0.6-28.6,2.6c-1.9,0.4-3.7,1-5.5,1.7c-0.5,0.2-1,0.5-1.4-0.2c-0.4-0.7,0.1-1,0.5-1.3 c3.7-3.2,7.6-6,11.8-8.5c4-2.4,8.3-4.4,12.5-6.4c0.4-0.2,0.8-0.2,1-0.7c-1-0.2-1.9,0.3-2.8,0.6c-6.6,2.3-13,5.2-19.1,8.5 c-1.3,0.7-2.8,1.4-3.7,2.5c-2.6,3-5.5,2.2-8.5,1.2c0-0.1-0.1-0.3,0-0.3c7.2-8.4,13.1-17.7,19.4-26.8c4.5-6.4,9.8-12.3,15.7-17.5 c3.1-2.7,6.5-5.1,10.6-6.3c5-1.5,9.1,0.4,11.3,5c1,2.1,1.6,4.3,1.9,6.5c0.9,6.8,3.8,12.9,6.2,19.3c1.4,3.8,3.4,7.6,3.8,11.7 C170.8,51.4,170,55,167.5,58.2z" fill="#B02020"/></g><g id="change3_1"><path d="M79.6,193.8c0,0.1,0,0.2,0,0.4C79.5,194,79.5,193.9,79.6,193.8z M131,180.4c-0.3,2.1-1,3.9-1.9,5.8 c-0.4,0.7-0.9,1.4-0.4,2.4c0.3,0.6,0.5,1.4-0.4,1.7c-0.9,0.3-1.3-0.3-1.7-1c-1.4-2.7-2.7-5.5-4.1-8.2c-0.9-1.8-1.6-3.6-2.5-5.3 c-0.8,0.3-0.7,0.9-0.9,1.4c-1.9,5.9-5.3,11-9.1,15.9c-0.8,1-1.7,1-2.7,0.4c-1.3-0.9-1.9-2.3-1.8-3.9c0.2-3.6,0.5-7.2,0.7-10.8 c0.9-15.8-0.7-31.5-3.3-47.1c-2.1-12.9-5.7-25.5-8.6-38.2c-0.6-2.7-1.2-5.4-1.7-8.1c-0.3-1.2-0.8-1.3-1.6-0.4 c-0.7,0.8-1.1,1.9-1.5,2.9c-2.8,7.6-4.1,15.5-6.2,23.3c-4.8,18.1-5,36.4-3.3,54.8c0.7,7.8,1,15.6,0.8,23.4c0,1.3-0.5,2.4-0.8,3.7 c-0.1,0.2-0.4,0.6-0.5,0.9c0-0.5,0-1-0.1-1.5c-0.5-3-0.5-6-0.4-9c0-5.3-0.4-10.5-0.9-15.8c-1.6-16.7-2-33.4,1.6-50 c1.9-8.9,3.2-17.8,5.8-26.5c0.9-3,1.8-6,3.9-8.4c0-0.2,0-0.5,0-0.7c0.2-0.1,0.4,0,0.5,0.1c-0.1-0.1-0.3-0.1-0.5-0.1 c-0.3-0.1-0.7-0.2-1-0.3c-1.5-0.5-2.3-0.1-2.8,1.6c-0.7,2.5-1.9,4.8-3,7.1c-3.3,6.9-6.8,13.8-9.6,20.9c-7,17.6-11.2,35.7-8.4,54.8 c0.5,3.4,0.7,7,1.9,10.2c2.4,6.4,6.5,11.8,11.1,16.9c0.5,0.5,0.9,1.2,1.9,1.3c0-0.1,0-0.1,0-0.2c0.1,0.1,0.3,0.3,0.7,0.4 c0.2,0.1-0.1,0.5-0.3,0.7c-0.5,0.5-1.2,0.8-1.8,0.4c-0.8-0.4-1.5-1-2.1-1.7c-4.7-5.3-9.4-10.4-11.7-17.3c-0.5-1.4-1.3-1.2-2.1-0.4 c-1.1,1.1-1.8,2.6-2.2,4.1c-1.6,5.6-3.6,11-5.9,16.4c-0.6,1.3-1.3,2.5-2.9,2.2c-1.6-0.3-1.5-1.8-1.5-3.1 c-0.1-12.7,0.7-25.4,1.3-38.1c0.5-9.9,1.1-19.8,3-29.5c1.7-9.1,4.7-17.7,8.8-26c4.1-8.2,9.8-15.1,16.4-21.3c0.4-0.4,1-0.7,1.2-1.3 c-3.7-2.1-4.8-5.4-4.6-9.4c0.1-1.9,0.5-3.8,0.9-5.7c1.4-6.5,5.8-10.4,12.4-11c5.7-0.5,11.4,0,16.9,1.7c2.9,0.9,4.6,3.1,5,6.2 c0.7,6.4,0.4,12.7-3.1,18.4c-0.5,0.9,0,1.5,0.3,2.2c3.3,6.3,6.5,12.7,10.1,18.9c7.3,12.5,10.7,26.1,11.4,40.5 c0.4,8.8,0.9,17.6,1.3,26.4C131.4,171.9,131.6,176.2,131,180.4z M103.7,77.9c1.7,0,3-0.9,3.8-2.5c1.5-3,2.2-6.2,2.1-9.5 c0.4-2.5,0-4.9-1.4-7.1c-0.3-0.5-0.6-1.2-1.5-0.7c-2.5,1.4-5.3,1.7-8.1,2.3c-4,0.8-7.9,2.1-11.1,4.8c-3.5,2.8-3.2,6.5,0.6,9 C92.8,77.3,98.2,78,103.7,77.9z M120,168.9c-0.2-1.8,0-3.6,0-5.4c-0.4-13.8-2.4-27.4-5.8-40.9c-3.2-12.4-7.9-24.4-11.5-36.7 c-1-3.6-1.1-3.5-4.9-3.4c-0.6,0-1.2,0-1.8,0c-1.2,0-2.2,0.2-1.3,1.8c0.4,0.8,0.6,1.7,0.8,2.6c4,17,8.7,33.8,11.1,51.1 c2.1,14.3,3.1,28.6,2,43c-0.2,3-0.5,6-0.7,9c-0.1,0.7,0,1.4,0.7,1.7c0.6,0.2,0.9-0.5,1.2-0.8c2.4-2.2,4-5,5.6-7.7 C118.1,178.8,120.5,174.3,120,168.9z" fill="#9E1919"/></g><g id="change4_1"><path d="M152.8,147.5c0.9-0.1,1.7-0.3,2.8-0.4c-0.7,1.1-1.6,1.2-2.6,1c-1.2,1.3-2.7,1-4.2,0.8 c-4.9-0.7-8.3-3.6-10.9-7.5c-4.3-6.4-7.6-13.4-11-20.4c-1.1-2.3-1.8-4.7-3.4-6.8c0.5,1.7,1,3.4,1.6,5c3.4,8.6,4.9,17.5,5.1,26.7 c0.2,8.4,0.1,16.8-0.2,25.2c0,1.1-0.3,2.3-0.4,3.4c0.2,1.9-0.1,3.8-0.6,6.1c0-2.2,0-4,0-5.8c-0.9-7-0.8-14-1-21 c-0.2-8.1-0.3-16.2-2.4-24.1c-2.7-10.3-6.2-20.3-10.9-29.9c-2.8-5.7-5.7-11.4-8.4-17.1c-0.4-0.7-1.3-1.8-0.4-2.4 c0.9-0.5,1.4,0.8,1.9,1.5c7.7,12.2,15.7,24.2,21.1,37.7c2.7,6.7,6.3,12.9,10.1,19.1C142.3,143.8,146.5,147.3,152.8,147.5z M8.8,113.1c-6.5-8.3-5.1-12.8,1.3-18.2c4.1-3.5,8.9-5.8,13.9-7.5c10.9-3.7,22-6.1,33.4-7.8c5.4-0.8,10.8-1.3,16.1-2.6 c0.8-0.2,2.2-0.2,2-1.3c-0.1-0.9-1.4-0.5-2.2-0.5c-7.2,0.3-14.3,1.3-21.4,2.4c-8.3,1.2-16.4,3.5-24.5,5.8C20,85.6,12.9,88.7,7.1,94 c-6.8,6.2-6.3,10.4-3.1,16.2c2,3.6,5.1,6.3,7.1,9.9c0,0.1,0.2,0.1,0.6,0.3C11.5,117.5,10.5,115.3,8.8,113.1z M89.4,82.2 c-0.6-0.5-1.3-0.3-1.8,0.2c-0.3,0.3-0.5,0.6-0.8,1c-2.4,3.4-3.5,7.3-4.4,11.3c-1.3,5.6-1.9,11.3-2.7,17c-2,13.7-3,27.5-3.4,41.4 c-0.3,11.5,1.8,22.8,2.5,34.2c0,1.1,0,2.1-0.1,3.2c0,0.6,0.1,1.3-0.7,1.5c-0.6,0.2-0.9-0.5-1.2-0.9c-1.4-2.1-2.9-4.1-4.2-6.2 c-1.7-2.6-3.3-5.3-4.8-8c-1.4-2.7-2.5-5.6-3.2-8.7c0,0.7,0,1.5,0.1,2.2c1.5,8.7,6.5,15.6,11.9,22.2c1,1.3,2.3,0.9,2.7-0.7 c0.4-1.5,0.3-3,0.2-4.4c0-1,0.1-1.9,0-2.9c-0.4-6.6-1-13.3-1.1-19.9c-0.4-17.2,0.6-34.3,3.4-51.3c0.9-5.9,1.4-11.8,2.8-17.6 c1-4.2,2.1-8.3,4.7-11.8C89.9,83.4,90.1,82.7,89.4,82.2z M81.6,82c0.5-0.3,1.3-0.6,0.9-1.4c-0.2-0.5-0.6,0-0.9,0.2 c-2.6,1.2-4.3,3.3-6.2,5.4c-6.4,7-11.9,14.6-15.1,23.7c-2.1,6.1-3.5,12.5-4.6,18.9c-2,12-3,24.2-4.1,36.3c-0.5,5.3-0.9,10.6-0.7,16 c0,3.1,0,6.2,0,9.2c0.1,0,0.1,0,0.2,0c0.2-3.1,0.5-6.2,0.7-9.3c0-0.6,0.1-1.2,0.1-1.8c0.3-0.3,0.3-0.7,0-1.1 c0.3-4.5,0.8-8.9,1.4-13.4c1.4-11.7,2.6-23.3,4.7-34.9c2.3-13,5.8-25.5,14-36.2C75.1,89.6,78.1,85.5,81.6,82z M39.3,11.6 c1.1-0.4,2,0.1,2.9,0.5c4.7,2.1,8.8,5.2,12.4,8.8c6.1,6,12,12.2,18,18.3c2.7,2.8,5.8,5.2,8.3,8.2c0.4,0.5,0.6,1.7,1.5,1.2 c0.7-0.4,0-0.9-0.5-1.3c-0.2-0.9-0.7-1.6-1.4-2.3c-3.7-3.8-7-7.8-10.4-11.8C65.4,27.6,61,21.8,55.4,17c-4.7-4.1-9.5-8.2-16.2-8.6 c-0.8-0.1-1.6-0.4-2.2,0.4c-0.5,0.6-0.4,1.2,0,1.8C37.7,11.3,38.4,11.9,39.3,11.6z M144.1,72.5c0.2,0.8,1.2,0.2,1.7,0 c4.8-1.2,9.3-3.2,13.6-5.6c8.6-4.8,15.5-15.9,9.4-28.7c-3.7-7.7-6.9-15.6-8.4-24.1c-0.3-1.5-0.8-3-1.3-4.5c-0.6-1.5-1.1-3-2.3-4.2 c-0.5-0.4-0.9-1.4-1.6-0.8c-0.6,0.5,0.4,0.8,0.8,1.3c0.7,2,1.3,4,2,6c1.7,5.4,2.4,11.2,4.7,16.4c2,4.6,4,9.1,5.8,13.7 c1.3,3.3,2,6.8,0.6,10.3c-1.3,3.2-3.2,5.9-5.5,8.3c-5.1,5.1-11.5,7.9-18,10.6C145,71.6,143.8,71.6,144.1,72.5z M102.8,52.6 c1.2-1.1,2.5-2.1,3.5-3.3c6.9-8.5,13.6-17,19.6-26.2c2.3-3.5,4.8-6.9,7.7-9.9c1.3-1.4,3.1-2.3,4.3-3.7c2.2-1.5,4.4-3,6.6-4.5 c-0.1-0.2-0.2-0.3-0.3-0.5c-2.6,0.6-4.7,2-6.5,3.9c-1.1,0.4-1.7,1.3-2.5,2c-4,3-8,6.1-10.9,10.2c-5.6,7.7-11.2,15.4-16.8,23.1 c-1.9,2.7-3.8,5.4-5.6,8.1c-0.2,0.3-0.8,0.8-0.3,1.2C102,53.4,102.5,52.9,102.8,52.6z M56,115.5c-3.4,5.8-7.2,11.5-10.7,17.2 c-1.8,1.9-3.5,3.9-5.1,5.9c-2.6,3.3-6,5.3-9.8,6.4c-3.3,1-6.2,0.2-8.8-2.2c-2.4-2.3-3.4-5.2-4.2-8.2c-0.7-2.4-1.2-4.9-2.7-7 c-0.2-0.3-0.1-1-0.8-0.8c-0.7,0.2-0.4,0.8-0.3,1.2c1,3.7,1.8,7.5,3,11.1c2.2,6.5,9,9.4,15.5,7.1c6.7-2.3,10.1-7.8,13.9-13.1 c0.7-0.1,0.8-0.7,1.1-1.1c1.7-3,3.5-6,5.2-9C53.5,120.7,54.7,118.1,56,115.5z M14.8,122.6c-0.1-1-0.6-1.7-1.7-1.7 c-1.1,0-1.6,0.6-1.6,1.7c0,1.1,0.6,1.7,1.6,1.7C14.2,124.3,14.7,123.6,14.8,122.6z M150.7,4.9c1,0,1.5-0.7,1.6-1.6 c-0.1-1-0.7-1.7-1.7-1.7c-0.9,0-1.6,0.7-1.6,1.7C149,4.3,149.6,4.9,150.7,4.9z M18.9,53.1c1.6-5.6,3.8-10.9,6-16.3 c2.7-6.5,5.5-13,7.9-19.7c0.2-0.6,0.6-1.6-0.3-1.9c-0.9-0.3-1.2,0.6-1.4,1.3c-1.2,2.8-2.3,5.5-3.5,8.3c-3.8,9.3-7.4,18.6-9.7,28.3 c-1,3.3-0.1,6.4,0.4,9.6C18.3,59.5,18.4,56.3,18.9,53.1z M33.9,14.2c1-0.1,1.7-0.5,1.8-1.6c0.1-0.9-0.5-1.5-1.4-1.5 c-1,0-1.8,0.5-1.8,1.5C32.5,13.5,32.9,14.1,33.9,14.2z M170.8,125.2c-0.9,0.1-1.4,0.7-1.4,1.5c0,0.9,0.5,1.5,1.4,1.5 c0.9,0,1.4-0.5,1.4-1.5C172.1,125.8,171.6,125.3,170.8,125.2z M116.1,178.1c-1.2,3.8-3.5,6.9-5.9,10c-0.2,0-0.5,0.1-0.7,0.1 c0.7-5.4,1.1-10.7,1.2-16.1c0.4-16.3-2.3-32.4-4.6-48.4c-1.4-9.8-4.7-19.2-7.2-28.8c-0.9-3.5-1.6-7-3-10.4 c-0.3-0.7-0.5-1.8-1.4-1.5c-0.9,0.2-0.4,1.3-0.3,1.9c0.8,4.2,1.5,8.5,2.8,12.6c3.7,11.9,6.7,24,8.5,36.4 c2.1,14.7,4.2,29.3,3.4,44.2c-0.2,3.2-0.5,6.3-0.7,9.5c-0.1,0.8,0,1.7,0.9,2.1c0.9,0.4,1.3-0.3,1.8-0.9c0,0,0,0,0,0c0,0,0,0,0,0 c3.1-3.2,5.3-6.8,6.4-11.2c0.7-1.9,1.2-3.8,1-5.9C117.7,174,116.3,175.8,116.1,178.1z M173.3,119c-0.1-1.3-0.1-2.5-1-3.6 c-0.1-0.5,0.1-1.2-0.7-1.4c-1.5-2.2-3.1-4.4-4.7-6.5c-4.6-5.8-9.2-11.7-14.7-16.7c-3.4-3.1-6.6-6.4-10-9.6c-3.3-3-7-4.9-11.7-4.7 c-3.8,0.2-7.5,0.1-11.3,0.1c-1.7,0-3.5,0.1-5.2,0.6c-1.3,0-2.6-0.1-3.8,0.6c1.3,0,2.5,0,3.8,0c3.8,0.6,7.7,0.3,11.5,0.7 c0.2,0.3,0.4,0.3,0.7,0c1.3,0.1,2.5,0.1,3.8,0.2c0.2,0.3,0.5,0.5,0.9,0.2c2.3,0.3,4.5,0.9,6.6,2.1c3.5,2,6.4,4.7,9.2,7.4 c7.5,7.1,14,15.3,21.1,22.9c2.1,2.2,3.8,4.6,4.6,7.5c0,1.8,0.8,3.5,0,5.3C173.1,122.6,173.6,120.9,173.3,119z M142.4,72.2 c-3.6,0.6-7.2,0.2-11.1,0.4c1.1,0.4,2.1,0.4,2.9,0.4c2.6,0.2,5.2,0.9,7.8,0.1c0.6-0.2,1.6,0.2,1.6-0.7 C143.6,71.6,142.9,72.1,142.4,72.2z" fill="#FF7B7B"/></g></svg>